<svg width="56" height="56" viewBox="0 0 56 56" fill="none" xmlns="http://www.w3.org/2000/svg">
<rect x="0.25" y="0.25" width="55.5" height="55.5" rx="11.75" fill="#2C2C2C" stroke="#444444" stroke-width="0.5"/>
<path d="M36.631 19.5714C37.437 18.769 37.437 17.4613 36.631 16.6588L33.6655 13.6911L33.6698 13.6953C32.8849 12.9098 31.5358 11.5597 29.6267 9.65336C28.7273 8.77449 27.2722 8.78298 26.3812 9.67459L9.67451 26.3816C9.46076 26.5941 9.29112 26.8468 9.17536 27.1251C9.0596 27.4035 9 27.702 9 28.0035C9 28.305 9.0596 28.6035 9.17536 28.8819C9.29112 29.1602 9.46076 29.4129 9.67451 29.6254L26.377 46.3281C26.8076 46.7584 27.3913 47 27.9997 47C28.6082 47 29.1918 46.7584 29.6225 46.3281L36.6267 39.3226C37.4328 38.5202 37.4328 37.2125 36.6267 36.4101C36.2396 36.0245 35.7156 35.8081 35.1695 35.8081C34.6233 35.8081 34.0993 36.0245 33.7122 36.4101L28.4091 41.7257C28.1885 41.9465 27.8449 41.9465 27.6243 41.7257L14.2818 28.3856C14.0612 28.1648 14.0612 27.8209 14.2818 27.6001L27.62 14.26C27.637 14.243 27.6582 14.2303 27.6752 14.2133C27.8958 14.0392 28.2013 14.0562 28.4049 14.26L33.7164 19.5714C34.5225 20.3781 35.8292 20.3781 36.631 19.5714ZM23.577 28.0884C23.577 29.2843 24.0521 30.4311 24.8979 31.2767C25.7436 32.1223 26.8907 32.5974 28.0867 32.5974C29.2828 32.5974 30.4298 32.1223 31.2756 31.2767C32.1213 30.4311 32.5964 29.2843 32.5964 28.0884C32.5964 26.8925 32.1213 25.7457 31.2756 24.9001C30.4298 24.0545 29.2828 23.5794 28.0867 23.5794C26.8907 23.5794 25.7436 24.0545 24.8979 24.9001C24.0521 25.7457 23.577 26.8925 23.577 28.0884ZM46.325 26.4495L41.111 21.257C40.3049 20.4545 38.9983 20.4545 38.1964 21.2612C38.0048 21.4522 37.8527 21.6791 37.749 21.929C37.6452 22.1789 37.5918 22.4469 37.5918 22.7175C37.5918 22.9882 37.6452 23.2561 37.749 23.506C37.8527 23.7559 38.0048 23.9829 38.1964 24.1738L41.7177 27.6935C41.9383 27.9143 41.9383 28.2582 41.7177 28.479L38.2474 31.9478C38.0557 32.1387 37.9036 32.3657 37.7999 32.6156C37.6961 32.8655 37.6427 33.1334 37.6427 33.4041C37.6427 33.6747 37.6961 33.9427 37.7999 34.1926C37.9036 34.4425 38.0557 34.6694 38.2474 34.8604C38.6345 35.2459 39.1585 35.4623 39.7046 35.4623C40.2508 35.4623 40.7747 35.2459 41.1619 34.8604L46.3292 29.6933C46.5422 29.4803 46.7111 29.2273 46.8262 28.9488C46.9413 28.6704 47.0004 28.3719 47 28.0705C46.9996 27.7692 46.9398 27.4709 46.8239 27.1927C46.7081 26.9145 46.5385 26.662 46.325 26.4495Z" fill="white"/>
</svg>
