<svg width="56" height="56" viewBox="0 0 56 56" fill="none" xmlns="http://www.w3.org/2000/svg">
<rect x="0.25" y="0.25" width="55.5" height="55.5" rx="11.75" fill="#2C2C2C" stroke="#444444" stroke-width="0.5"/>
<path d="M9 40.906C9.06808 41.7452 9.36417 42.5891 10.1368 43.7212C11.0552 45.0654 12.6322 45.8033 13.7832 44.6189C14.5591 43.8193 22.9571 29.1402 27.0041 23.5764C27.1151 23.4173 27.2629 23.2874 27.4349 23.1977C27.607 23.108 27.7981 23.0612 27.9921 23.0612C28.1861 23.0612 28.3772 23.108 28.5492 23.1977C28.7212 23.2874 28.869 23.4173 28.9801 23.5764C33.0271 29.1402 41.4251 43.8193 42.2009 44.6189C43.352 45.8033 44.929 45.0654 45.8473 43.7212C46.7498 42.3991 47 41.4728 47 40.4817C47 39.8072 33.9217 15.4682 32.6043 13.4415C31.3377 11.494 30.9513 11.0697 28.8091 11H27.1751C25.0328 11.0697 24.6465 11.4924 23.3783 13.4415C22.0894 15.4254 9.5225 38.8065 9 40.4088V40.906Z" fill="white"/>
</svg>
