<svg width="56" height="56" viewBox="0 0 56 56" fill="none" xmlns="http://www.w3.org/2000/svg">
<rect x="0.25" y="0.25" width="55.5" height="55.5" rx="11.75" fill="#2C2C2C" stroke="#444444" stroke-width="0.5"/>
<path d="M47 38.4564C46.447 38.6656 45.8365 38.6651 45.2837 38.4551C44.731 38.2451 44.2742 37.84 43.9996 37.3164L38.5371 29.7623L37.7454 28.7062L31.4074 37.3259C31.1492 37.8276 30.7173 38.2181 30.1921 38.4244C29.667 38.6307 29.0848 38.6387 28.5542 38.4469L36.721 27.4902L29.1242 17.5928C29.6704 17.396 30.2678 17.3933 30.8158 17.5854C31.3637 17.7775 31.8287 18.1525 32.1325 18.6473L37.7945 26.2948L43.4882 18.679C43.7483 18.1862 44.1804 17.8062 44.7023 17.6112C45.2243 17.4162 45.7997 17.4198 46.3192 17.6213L43.371 21.5337L39.3779 26.7318C39.267 26.8307 39.1782 26.952 39.1175 27.0876C39.0567 27.2232 39.0253 27.3701 39.0253 27.5187C39.0253 27.6673 39.0567 27.8142 39.1175 27.9499C39.1782 28.0855 39.267 28.2067 39.3779 28.3056L46.9842 38.458L47 38.4564ZM9.00319 27.3541L9.66819 24.0686C11.4954 17.5722 18.9434 14.8695 24.067 18.8911C27.0674 21.2487 27.8164 24.5864 27.6691 28.3484H10.767C10.4931 35.0665 15.3413 39.123 21.54 37.0504C22.5449 36.6887 23.4444 36.0833 24.1578 35.2886C24.8713 34.4939 25.3765 33.5346 25.6282 32.4967C25.9559 31.4422 26.4959 31.2617 27.487 31.5657C27.3219 32.852 26.8672 34.0841 26.1571 35.1693C25.4471 36.2544 24.5002 37.1645 23.3878 37.831C21.5502 38.8361 19.4418 39.2345 17.3642 38.9692C15.2865 38.7039 13.346 37.7884 11.8199 36.3537C10.3111 34.6554 9.39914 32.5102 9.22327 30.2452C9.22327 29.8731 9.0966 29.5248 9.0111 29.1907C9.00339 28.5791 8.9997 27.9673 9.00002 27.3556L9.00319 27.3541ZM10.7876 26.9012H26.0731C25.9781 22.0309 22.9049 18.5761 18.8056 18.5444C14.2424 18.4811 10.9776 21.8599 10.7765 26.8791L10.7876 26.9012Z" fill="#A291FD"/>
</svg>
