<svg width="56" height="56" viewBox="0 0 56 56" fill="none" xmlns="http://www.w3.org/2000/svg">
<rect x="0.25" y="0.25" width="55.5" height="55.5" rx="11.75" fill="#2C2C2C" stroke="#444444" stroke-width="0.5"/>
<path d="M15 16.1096C15 12.1831 18.1831 9 22.1096 9H34.3088C38.2354 9 41.4185 12.1831 41.4185 16.1096C41.4185 18.5959 40.1422 20.7842 38.209 22.0549C40.1422 23.3256 41.4185 25.5138 41.4185 28.0001C41.4185 31.9267 38.2354 35.1098 34.3088 35.1098H34.1544C32.3137 35.1098 30.6363 34.4102 29.3736 33.2624V39.8132C29.3736 43.792 26.1074 47 22.1479 47C18.2312 47 15 43.8266 15 39.8904C15 37.4042 16.2762 35.2161 18.2092 33.9453C16.2762 32.6745 15 30.4863 15 28.0001C15 25.5138 16.2763 23.3256 18.2094 22.0549C16.2763 20.7842 15 18.5959 15 16.1096ZM27.0448 23.2193H22.1096C19.4692 23.2193 17.3288 25.3598 17.3288 28.0001C17.3288 30.6303 19.4527 32.7644 22.0791 32.7809C22.0892 32.7808 22.0994 32.7808 22.1096 32.7808H27.0448V23.2193ZM29.3736 28.0001C29.3736 30.6405 31.514 32.7809 34.1544 32.7809H34.3088C36.9492 32.7809 39.0896 30.6405 39.0896 28.0001C39.0896 25.3598 36.9492 23.2193 34.3088 23.2193H34.1544C31.514 23.2193 29.3736 25.3598 29.3736 28.0001ZM22.1096 35.1098C22.0994 35.1098 22.0892 35.1097 22.0791 35.1097C19.4527 35.1261 17.3288 37.2602 17.3288 39.8904C17.3288 42.521 19.4978 44.6712 22.1479 44.6712C24.8407 44.6712 27.0448 42.4865 27.0448 39.8132V35.1098H22.1096ZM22.1096 11.3288C19.4692 11.3288 17.3288 13.4693 17.3288 16.1096C17.3288 18.75 19.4692 20.8904 22.1096 20.8904H27.0448V11.3288H22.1096ZM29.3736 20.8904H34.3088C36.9492 20.8904 39.0896 18.75 39.0896 16.1096C39.0896 13.4693 36.9492 11.3288 34.3088 11.3288H29.3736V20.8904Z" fill="#A291FD"/>
</svg>
