<svg width="56" height="56" viewBox="0 0 56 56" fill="none" xmlns="http://www.w3.org/2000/svg">
<rect x="0.25" y="0.25" width="55.5" height="55.5" rx="11.75" fill="#2C2C2C" stroke="#444444" strokeWidth="0.5"/>
<path d="M15.9789 33.2587L19.5006 10.691C19.6223 9.92134 20.6547 9.73951 21.0191 10.4275L24.8043 17.5117L15.9789 33.2587ZM41.125 38.5L37.656 17.957C37.6309 17.8102 37.566 17.673 37.4685 17.5604C37.3709 17.4478 37.2444 17.364 37.1027 17.3181C36.961 17.2723 36.8094 17.266 36.6644 17.3002C36.5193 17.3343 36.3864 17.4074 36.28 17.5117L15 38.5L26.8275 45.3215C27.1904 45.5205 27.5977 45.6249 28.0117 45.6249C28.4256 45.6249 28.8329 45.5205 29.1958 45.3215L41.125 38.5ZM31.5033 20.6081L28.7913 15.4469C28.7239 15.3143 28.6211 15.203 28.4943 15.1252C28.3675 15.0475 28.2216 15.0063 28.0729 15.0063C27.9241 15.0063 27.7783 15.0475 27.6515 15.1252C27.5247 15.203 27.4219 15.3143 27.3545 15.4469L15.4327 36.6995L31.5033 20.6081Z" fill="#A291FD"/>
</svg>
