<svg width="608" height="222" viewBox="0 0 608 222" fill="none" xmlns="http://www.w3.org/2000/svg">
<path d="M143.551 200.707C134.957 200.414 128.463 198.412 124.068 194.701C119.674 190.893 116.5 186.645 114.547 181.957C112.594 177.172 111.617 172.338 111.617 167.455C111.617 162.377 112.545 157.494 114.4 152.807C116.354 148.021 119.527 143.773 123.922 140.062C128.414 136.254 134.078 134.301 140.914 134.203H188.375C195.211 134.301 200.826 136.254 205.221 140.062C209.713 143.773 212.887 148.021 214.742 152.807C216.695 157.494 217.672 162.377 217.672 167.455C217.672 172.338 216.695 177.172 214.742 181.957C212.789 186.645 209.615 190.893 205.221 194.701C200.826 198.412 194.332 200.414 185.738 200.707H143.551ZM140.328 153.832C138.473 153.832 136.861 154.613 135.494 156.176C134.127 157.641 133.102 159.398 132.418 161.449C131.832 163.402 131.539 165.355 131.539 167.309C131.539 169.359 131.832 171.41 132.418 173.461C133.102 175.414 134.127 177.172 135.494 178.734C136.861 180.199 138.473 180.98 140.328 181.078H188.961C190.816 180.98 192.428 180.199 193.795 178.734C195.162 177.172 196.139 175.414 196.725 173.461C197.408 171.41 197.75 169.359 197.75 167.309C197.75 165.355 197.408 163.402 196.725 161.449C196.139 159.398 195.162 157.641 193.795 156.176C192.428 154.613 190.816 153.832 188.961 153.832H140.328ZM327.535 142.699C327.535 145.141 326.559 147.191 324.605 148.852C322.75 150.414 320.455 151.195 317.721 151.195H255.758C254.488 151.195 253.463 151.439 252.682 151.928C251.9 152.416 251.314 152.953 250.924 153.539C250.533 154.027 250.338 154.467 250.338 154.857C250.338 155.346 250.533 155.883 250.924 156.469C251.314 156.957 251.9 157.445 252.682 157.934C253.463 158.324 254.488 158.568 255.758 158.666H303.658C309.811 158.764 314.889 159.984 318.893 162.328C322.896 164.574 325.729 167.26 327.389 170.385C329.146 173.412 330.025 176.488 330.025 179.613C330.025 182.641 329.146 185.717 327.389 188.842C325.631 191.869 322.75 194.555 318.746 196.898C314.84 199.145 309.811 200.268 303.658 200.268C302.584 200.365 301.803 200.414 301.314 200.414H244.479C241.744 200.414 239.4 199.633 237.447 198.07C235.592 196.41 234.664 194.408 234.664 192.064C234.664 189.623 235.641 187.572 237.594 185.912C239.449 184.35 241.744 183.568 244.479 183.568H304.83C306.295 183.666 307.467 183.471 308.346 182.982C309.322 182.494 310.055 181.957 310.543 181.371C311.031 180.785 311.275 180.199 311.275 179.613C311.275 179.32 311.031 178.832 310.543 178.148C310.055 177.367 309.322 176.781 308.346 176.391C307.467 175.902 306.295 175.609 304.83 175.512H256.783C251.119 175.414 246.432 174.242 242.721 171.996C239.01 169.652 236.373 166.967 234.811 163.939C233.248 160.912 232.467 157.885 232.467 154.857C232.467 151.83 233.248 148.852 234.811 145.922C236.471 142.895 239.107 140.307 242.721 138.158C246.432 135.912 251.119 134.691 256.783 134.496C257.76 134.398 258.492 134.35 258.98 134.35H317.721C320.455 134.35 322.75 135.18 324.605 136.84C326.559 138.402 327.535 140.355 327.535 142.699ZM428.17 192.943V157.641C428.17 155.199 426.9 153.93 424.361 153.832H373.092C371.236 153.93 369.625 154.76 368.258 156.322C366.891 157.787 365.865 159.545 365.182 161.596C364.596 163.549 364.303 165.551 364.303 167.602C364.303 169.555 364.596 171.557 365.182 173.607C365.865 175.561 366.891 177.318 368.258 178.881C369.625 180.346 371.236 181.078 373.092 181.078H410.592C413.326 181.078 415.621 182.055 417.477 184.008C419.43 185.863 420.406 188.158 420.406 190.893C420.406 193.627 419.43 195.922 417.477 197.777C415.621 199.73 413.326 200.707 410.592 200.707H373.678C366.842 200.609 361.178 198.705 356.686 194.994C352.291 191.186 349.117 186.938 347.164 182.25C345.309 177.465 344.381 172.533 344.381 167.455C344.381 162.572 345.357 157.787 347.311 153.1C349.264 148.314 352.438 144.066 356.832 140.355C361.227 136.547 367.721 134.496 376.314 134.203H437.838C440.572 134.203 442.916 135.131 444.869 136.986C446.822 138.744 447.848 140.99 447.945 143.725V192.943C447.945 195.678 446.92 197.973 444.869 199.828C442.916 201.586 440.572 202.465 437.838 202.465C431.979 201.977 428.756 198.803 428.17 192.943ZM476.949 132.738C479.586 132.836 481.832 133.812 483.688 135.668C485.543 137.426 486.52 139.623 486.617 142.26V192.943C486.031 198.803 482.809 201.977 476.949 202.465C474.215 202.465 471.822 201.586 469.771 199.828C467.818 197.973 466.842 195.678 466.842 192.943V142.26C466.939 139.525 467.965 137.279 469.918 135.521C471.871 133.666 474.215 132.738 476.949 132.738ZM464.645 113.695C464.645 110.961 465.816 108.617 468.16 106.664C470.504 104.711 473.336 103.734 476.656 103.734C479.977 103.734 482.809 104.711 485.152 106.664C487.496 108.617 488.668 110.961 488.668 113.695C488.668 116.527 487.496 118.92 485.152 120.873C482.809 122.826 479.977 123.803 476.656 123.803C473.336 123.803 470.504 122.826 468.16 120.873C465.816 118.92 464.645 116.527 464.645 113.695ZM551.217 132.006C556.295 132.006 561.275 132.592 566.158 133.764C571.139 134.936 575.875 136.693 580.367 139.037C584.859 141.283 588.814 144.311 592.232 148.119C595.748 151.928 597.652 156.469 597.945 161.742V167.895V192.943C597.359 198.803 594.137 201.977 588.277 202.465C585.543 202.465 583.15 201.586 581.1 199.828C579.146 197.973 578.17 195.678 578.17 192.943V186.498V166.283C577.975 163.256 576.803 160.766 574.654 158.812C572.604 156.762 570.26 155.15 567.623 153.979C565.084 152.807 562.398 151.928 559.566 151.342C556.832 150.756 554.049 150.463 551.217 150.463C548.385 150.463 545.553 150.756 542.721 151.342C539.986 151.928 537.301 152.807 534.664 153.979C532.125 155.15 529.781 156.762 527.633 158.812C525.582 160.766 524.459 163.256 524.264 166.283V186.498V192.943C523.775 198.803 520.602 201.977 514.742 202.465C512.008 202.465 509.615 201.586 507.564 199.828C505.611 197.973 504.635 195.678 504.635 192.943V167.895V161.742C504.928 156.469 506.783 151.928 510.201 148.119C513.619 144.311 517.574 141.283 522.066 139.037C526.559 136.693 531.246 134.936 536.129 133.764C541.109 132.592 546.139 132.006 551.217 132.006Z" fill="#6B58E7"/>
<path opacity="0.65" d="M34 150.735C34 151.319 33.7452 151.873 33.3025 152.253L3.30251 177.999C2.0054 179.112 0 178.19 0 176.481V75.9731C0 75.3666 0.275243 74.7928 0.748305 74.4132L33.5971 48.0545C33.6411 48.0192 33.6958 48 33.7522 48C33.889 48 34 48.111 34 48.2478V150.735Z" fill="white"/>
<path opacity="0.67" d="M90 182.456C90 183.051 89.7351 183.615 89.2774 183.995L56.8948 210.874C56.7968 210.955 56.6734 211 56.5461 211C56.2445 211 56 210.756 56 210.454V124C56 122.895 56.8954 122 58 122H88C89.1046 122 90 122.895 90 124V182.456ZM90 86C90 87.1046 89.1046 88 88 88H58C56.8954 88 56 87.1046 56 86V29.9602C56 29.3767 56.2548 28.8224 56.6975 28.4424L89.807 0.0281838C89.8282 0.00999784 89.8552 0 89.8831 0C89.9477 0 90 0.0523288 90 0.11688V86Z" fill="white"/>
<path d="M146 133.169C146 133.753 145.745 134.307 145.302 134.687L115.302 160.432C114.005 161.545 112 160.624 112 158.914V62.4042C112 61.8208 112.255 61.2664 112.698 60.8865L142.698 35.1414C143.995 34.0283 146 34.9499 146 36.6591V133.169Z" fill="#6B58E7"/>
</svg>
