<svg width="146" height="211" viewBox="0 0 146 211" fill="none" xmlns="http://www.w3.org/2000/svg">
<path opacity="0.65" d="M34 150.735C34 151.319 33.7452 151.873 33.3025 152.253L3.30251 177.999C2.0054 179.112 0 178.19 0 176.481V75.9731C0 75.3666 0.275243 74.7928 0.748305 74.4132L33.5971 48.0545C33.6411 48.0192 33.6958 48 33.7522 48C33.889 48 34 48.111 34 48.2478V150.735Z" fill="white"/>
<path opacity="0.67" d="M90 182.456C90 183.051 89.7351 183.615 89.2774 183.995L56.8948 210.874C56.7968 210.955 56.6734 211 56.5461 211C56.2445 211 56 210.756 56 210.454V124C56 122.895 56.8954 122 58 122H88C89.1046 122 90 122.895 90 124V182.456ZM90 86C90 87.1046 89.1046 88 88 88H58C56.8954 88 56 87.1046 56 86V29.9602C56 29.3767 56.2548 28.8224 56.6975 28.4424L89.807 0.0281838C89.8282 0.00999784 89.8552 0 89.8831 0C89.9477 0 90 0.0523288 90 0.11688V86Z" fill="white"/>
<path fillRule="evenodd" clipRule="evenodd" d="M146 133.169C146 133.752 145.745 134.307 145.302 134.687L115.302 160.432C114.005 161.545 112 160.623 112 158.914V62.4036C112 61.8202 112.255 61.2658 112.697 60.8859L142.697 35.14C143.995 34.0268 146 34.9484 146 36.6577V133.169Z" fill="#6B58E7"/>
</svg>
