<svg width="56" height="56" viewBox="0 0 56 56" fill="none" xmlns="http://www.w3.org/2000/svg">
<rect x="0.25" y="0.25" width="55.5" height="55.5" rx="11.75" fill="#2C2C2C" stroke="#444444" stroke-width="0.5"/>
<path d="M37.5413 9H18.4586C13.6216 9 11.2031 9 9.87516 10.4965C8.54717 11.9931 8.93227 14.2845 9.70246 18.8674L12.7753 37.1519C13.439 41.1007 14.4005 42.284 18.3476 43.7411L24.816 46.1287C26.3897 46.7095 27.1765 47 28 47C28.8235 47 29.6103 46.7095 31.1839 46.1287L37.6524 43.7411C41.5995 42.284 42.5609 41.1007 43.2246 37.1519L46.2974 18.8674C47.0677 14.2845 47.4529 11.9931 46.1249 10.4965C44.7969 9 42.3783 9 37.5413 9Z" fill="#A291FD" stroke="#A291FD" stroke-width="2" stroke-linecap="round" stroke-linejoin="round"/>
<path d="M35.0783 19.2915H23.9619C21.9323 19.2915 21.5233 19.6905 21.7054 21.5984L22.11 25.8355C22.2636 27.4446 22.6536 27.7657 24.3665 27.7657H31.4193C33.4867 27.7657 33.8978 28.1742 33.6714 30.1139L33.2929 33.3566C33.1409 34.661 33.0976 34.7113 31.7689 35.1329L29.0099 36.0088C28.2883 36.2376 28.2752 36.2376 27.5536 36.0088L24.4834 35.0343C23.6575 34.7721 23.3805 34.4531 23.2328 33.6718" stroke="#2C2C2C" stroke-width="2" stroke-linecap="round" stroke-linejoin="round"/>
</svg>
