<svg width="56" height="56" viewBox="0 0 56 56" fill="none" xmlns="http://www.w3.org/2000/svg">
<rect x="0.25" y="0.25" width="55.5" height="55.5" rx="11.75" fill="#2C2C2C" stroke="#444444" stroke-width="0.5"/>
<path d="M9 28C9 19.0433 9 14.565 11.7825 11.7825C14.565 9 19.0433 9 28 9C36.9566 9 41.435 9 44.2176 11.7825C47 14.565 47 19.0433 47 28C47 36.9566 47 41.435 44.2176 44.2176C41.435 47 36.9566 47 28 47C19.0433 47 14.565 47 11.7825 44.2176C9 41.435 9 36.9566 9 28Z" fill="white" stroke="white" stroke-width="2"/>
<path d="M27.4648 28V36C27.4648 38.2092 25.674 40 23.4649 40C21.9843 40 20.6916 39.1956 20 38" fill="white"/>
<path d="M27.4648 28V36C27.4648 38.2092 25.674 40 23.4649 40C21.9843 40 20.6916 39.1956 20 38" stroke="#2C2C2C" stroke-width="2" stroke-linecap="round"/>
<path d="M40.9336 30C40.242 28.8044 38.9493 28 37.4688 28H36.4688C34.8118 28 33.4688 29.3432 33.4688 31C33.4688 32.6568 34.8118 34 36.4688 34H38.4688C40.1256 34 41.4688 35.3432 41.4688 37C41.4688 38.6568 40.1256 40 38.4688 40H37.4688C35.9882 40 34.6953 39.1956 34.0037 38" fill="white"/>
<path d="M40.9336 30C40.242 28.8044 38.9493 28 37.4688 28H36.4688C34.8118 28 33.4688 29.3432 33.4688 31C33.4688 32.6568 34.8118 34 36.4688 34H38.4688C40.1256 34 41.4688 35.3432 41.4688 37C41.4688 38.6568 40.1256 40 38.4688 40H37.4688C35.9882 40 34.6953 39.1956 34.0037 38" stroke="#2C2C2C" stroke-width="2" stroke-linecap="round"/>
</svg>
