<svg width="591" height="100" viewBox="0 0 591 100" fill="none" xmlns="http://www.w3.org/2000/svg">
<path d="M10.1074 8.20312C12.7441 8.30078 14.9902 9.27734 16.8457 11.1328C18.7012 12.8906 19.6777 15.0879 19.7754 17.7246V42.1875H67.3828V17.7246C67.4805 14.9902 68.5059 12.7441 70.459 10.9863C72.4121 9.13086 74.7559 8.20312 77.4902 8.20312C80.127 8.30078 82.373 9.27734 84.2285 11.1328C86.084 12.8906 87.0605 15.0879 87.1582 17.7246V89.502C86.5723 95.3613 83.3496 98.5352 77.4902 99.0234C74.7559 99.0234 72.3633 98.1445 70.3125 96.3867C68.3594 94.5312 67.3828 92.2363 67.3828 89.502V61.8164H19.7754V89.502C19.1895 95.3613 15.9668 98.5352 10.1074 99.0234C7.37305 99.0234 4.98047 98.1445 2.92969 96.3867C0.976562 94.5312 0 92.2363 0 89.502V17.7246C0.0976562 14.9902 1.12305 12.7441 3.07617 10.9863C5.0293 9.13086 7.37305 8.20312 10.1074 8.20312ZM135.645 96.9727C127.051 96.6797 120.557 94.6777 116.162 90.9668C111.768 87.1582 108.594 82.9102 106.641 78.2227C104.688 73.4375 103.711 68.6035 103.711 63.7207C103.711 58.6426 104.639 53.7598 106.494 49.0723C108.447 44.2871 111.621 40.0391 116.016 36.3281C120.508 32.5195 126.172 30.5664 133.008 30.4688H180.469C187.305 30.5664 192.92 32.5195 197.314 36.3281C201.807 40.0391 204.98 44.2871 206.836 49.0723C208.789 53.7598 209.766 58.6426 209.766 63.7207C209.766 68.6035 208.789 73.4375 206.836 78.2227C204.883 82.9102 201.709 87.1582 197.314 90.9668C192.92 94.6777 186.426 96.6797 177.832 96.9727H135.645ZM132.422 50.0977C130.566 50.0977 128.955 50.8789 127.588 52.4414C126.221 53.9062 125.195 55.6641 124.512 57.7148C123.926 59.668 123.633 61.6211 123.633 63.5742C123.633 65.625 123.926 67.6758 124.512 69.7266C125.195 71.6797 126.221 73.4375 127.588 75C128.955 76.4648 130.566 77.2461 132.422 77.3438H181.055C182.91 77.2461 184.521 76.4648 185.889 75C187.256 73.4375 188.232 71.6797 188.818 69.7266C189.502 67.6758 189.844 65.625 189.844 63.5742C189.844 61.6211 189.502 59.668 188.818 57.7148C188.232 55.6641 187.256 53.9062 185.889 52.4414C184.521 50.8789 182.91 50.0977 181.055 50.0977H132.422ZM319.629 38.9648C319.629 41.4062 318.652 43.457 316.699 45.1172C314.844 46.6797 312.549 47.4609 309.814 47.4609H247.852C246.582 47.4609 245.557 47.7051 244.775 48.1934C243.994 48.6816 243.408 49.2188 243.018 49.8047C242.627 50.293 242.432 50.7324 242.432 51.123C242.432 51.6113 242.627 52.1484 243.018 52.7344C243.408 53.2227 243.994 53.7109 244.775 54.1992C245.557 54.5898 246.582 54.834 247.852 54.9316H295.752C301.904 55.0293 306.982 56.25 310.986 58.5938C314.99 60.8398 317.822 63.5254 319.482 66.6504C321.24 69.6777 322.119 72.7539 322.119 75.8789C322.119 78.9062 321.24 81.9824 319.482 85.1074C317.725 88.1348 314.844 90.8203 310.84 93.1641C306.934 95.4102 301.904 96.5332 295.752 96.5332C294.678 96.6309 293.896 96.6797 293.408 96.6797H236.572C233.838 96.6797 231.494 95.8984 229.541 94.3359C227.686 92.6758 226.758 90.6738 226.758 88.3301C226.758 85.8887 227.734 83.8379 229.688 82.1777C231.543 80.6152 233.838 79.834 236.572 79.834H296.924C298.389 79.9316 299.561 79.7363 300.439 79.248C301.416 78.7598 302.148 78.2227 302.637 77.6367C303.125 77.0508 303.369 76.4648 303.369 75.8789C303.369 75.5859 303.125 75.0977 302.637 74.4141C302.148 73.6328 301.416 73.0469 300.439 72.6562C299.561 72.168 298.389 71.875 296.924 71.7773H248.877C243.213 71.6797 238.525 70.5078 234.814 68.2617C231.104 65.918 228.467 63.2324 226.904 60.2051C225.342 57.1777 224.561 54.1504 224.561 51.123C224.561 48.0957 225.342 45.1172 226.904 42.1875C228.564 39.1602 231.201 36.5723 234.814 34.4238C238.525 32.1777 243.213 30.957 248.877 30.7617C249.854 30.6641 250.586 30.6152 251.074 30.6152H309.814C312.549 30.6152 314.844 31.4453 316.699 33.1055C318.652 34.668 319.629 36.6211 319.629 38.9648ZM420.264 89.209V53.9062C420.264 51.4648 418.994 50.1953 416.455 50.0977H365.186C363.33 50.1953 361.719 51.0254 360.352 52.5879C358.984 54.0527 357.959 55.8105 357.275 57.8613C356.689 59.8145 356.396 61.8164 356.396 63.8672C356.396 65.8203 356.689 67.8223 357.275 69.873C357.959 71.8262 358.984 73.584 360.352 75.1465C361.719 76.6113 363.33 77.3438 365.186 77.3438H402.686C405.42 77.3438 407.715 78.3203 409.57 80.2734C411.523 82.1289 412.5 84.4238 412.5 87.1582C412.5 89.8926 411.523 92.1875 409.57 94.043C407.715 95.9961 405.42 96.9727 402.686 96.9727H365.771C358.936 96.875 353.271 94.9707 348.779 91.2598C344.385 87.4512 341.211 83.2031 339.258 78.5156C337.402 73.7305 336.475 68.7988 336.475 63.7207C336.475 58.8379 337.451 54.0527 339.404 49.3652C341.357 44.5801 344.531 40.332 348.926 36.6211C353.32 32.8125 359.814 30.7617 368.408 30.4688H429.932C432.666 30.4688 435.01 31.3965 436.963 33.252C438.916 35.0098 439.941 37.2559 440.039 39.9902V89.209C440.039 91.9434 439.014 94.2383 436.963 96.0938C435.01 97.8516 432.666 98.7305 429.932 98.7305C424.072 98.2422 420.85 95.0684 420.264 89.209ZM469.043 29.0039C471.68 29.1016 473.926 30.0781 475.781 31.9336C477.637 33.6914 478.613 35.8887 478.711 38.5254V89.209C478.125 95.0684 474.902 98.2422 469.043 98.7305C466.309 98.7305 463.916 97.8516 461.865 96.0938C459.912 94.2383 458.936 91.9434 458.936 89.209V38.5254C459.033 35.791 460.059 33.5449 462.012 31.7871C463.965 29.9316 466.309 29.0039 469.043 29.0039ZM456.738 9.96094C456.738 7.22656 457.91 4.88281 460.254 2.92969C462.598 0.976562 465.43 0 468.75 0C472.07 0 474.902 0.976562 477.246 2.92969C479.59 4.88281 480.762 7.22656 480.762 9.96094C480.762 12.793 479.59 15.1855 477.246 17.1387C474.902 19.0918 472.07 20.0684 468.75 20.0684C465.43 20.0684 462.598 19.0918 460.254 17.1387C457.91 15.1855 456.738 12.793 456.738 9.96094ZM543.311 28.2715C548.389 28.2715 553.369 28.8574 558.252 30.0293C563.232 31.2012 567.969 32.959 572.461 35.3027C576.953 37.5488 580.908 40.5762 584.326 44.3848C587.842 48.1934 589.746 52.7344 590.039 58.0078V64.1602V89.209C589.453 95.0684 586.23 98.2422 580.371 98.7305C577.637 98.7305 575.244 97.8516 573.193 96.0938C571.24 94.2383 570.264 91.9434 570.264 89.209V82.7637V62.5488C570.068 59.5215 568.896 57.0312 566.748 55.0781C564.697 53.0273 562.354 51.416 559.717 50.2441C557.178 49.0723 554.492 48.1934 551.66 47.6074C548.926 47.0215 546.143 46.7285 543.311 46.7285C540.479 46.7285 537.646 47.0215 534.814 47.6074C532.08 48.1934 529.395 49.0723 526.758 50.2441C524.219 51.416 521.875 53.0273 519.727 55.0781C517.676 57.0312 516.553 59.5215 516.357 62.5488V82.7637V89.209C515.869 95.0684 512.695 98.2422 506.836 98.7305C504.102 98.7305 501.709 97.8516 499.658 96.0938C497.705 94.2383 496.729 91.9434 496.729 89.209V64.1602V58.0078C497.021 52.7344 498.877 48.1934 502.295 44.3848C505.713 40.5762 509.668 37.5488 514.16 35.3027C518.652 32.959 523.34 31.2012 528.223 30.0293C533.203 28.8574 538.232 28.2715 543.311 28.2715Z" fill="white"/>
</svg>
