<svg width="56" height="56" viewBox="0 0 56 56" fill="none" xmlns="http://www.w3.org/2000/svg">
<rect x="0.25" y="0.25" width="55.5" height="55.5" rx="11.75" fill="#2C2C2C" stroke="#444444" stroke-width="0.5"/>
<path d="M27.573 46.4025C27.0758 46.4025 26.5711 46.2689 26.1332 46.0166L21.5539 43.3076C20.8711 42.9217 21.2051 42.7881 21.4277 42.7139C22.3406 42.3947 22.5262 42.3279 23.4984 41.7713C23.6023 41.7119 23.7359 41.7342 23.8398 41.801L27.3578 43.8865C27.484 43.9607 27.6621 43.9607 27.7809 43.8865L41.4891 35.9748C41.6152 35.9006 41.6969 35.7521 41.6969 35.6037V19.7803C41.6969 19.6244 41.6152 19.4834 41.4816 19.4018L27.7809 11.4975C27.6547 11.4232 27.484 11.4232 27.3578 11.4975L13.6645 19.4092C13.5309 19.4834 13.4492 19.6318 13.4492 19.7877V35.6037C13.4492 35.7521 13.5309 35.9006 13.6645 35.9674L17.4199 38.1346C19.4609 39.1514 20.7078 37.9564 20.7078 36.7467V21.1311C20.7078 20.9084 20.8859 20.7377 21.1086 20.7377H22.8453C23.0605 20.7377 23.2461 20.9084 23.2461 21.1311V36.7541C23.2461 39.4705 21.7617 41.0291 19.1863 41.0291C18.3922 41.0291 17.7688 41.0291 16.032 40.1682L12.4398 38.0975C11.5492 37.5854 11 36.6279 11 35.5963V19.7803C11 18.7561 11.5492 17.7912 12.4398 17.2791L26.1332 9.36738C27.0016 8.87754 28.152 8.87754 29.0129 9.36738L42.7211 17.2865C43.6117 17.7986 44.1609 18.7561 44.1609 19.7877V35.6037C44.1609 36.6279 43.6117 37.5854 42.7211 38.1049L29.0129 46.0166C28.575 46.2689 28.0777 46.4025 27.573 46.4025ZM38.6391 30.8092C38.6391 27.8479 36.6352 27.0611 32.427 26.5045C28.1668 25.9404 27.7363 25.651 27.7363 24.6564C27.7363 23.8326 28.1 22.7342 31.2543 22.7342C34.0672 22.7342 35.1063 23.3428 35.5367 25.2428C35.5738 25.4209 35.7371 25.5545 35.9227 25.5545H37.7039C37.8152 25.5545 37.9191 25.51 37.9934 25.4283C38.0676 25.3467 38.1047 25.2354 38.0973 25.124C37.8227 21.851 35.648 20.3295 31.2543 20.3295C27.343 20.3295 25.0125 21.9771 25.0125 24.7455C25.0125 27.7439 27.3355 28.5752 31.0836 28.9463C35.5738 29.3842 35.9227 30.0447 35.9227 30.9279C35.9227 32.4568 34.6906 33.11 31.8035 33.11C28.1742 33.11 27.3801 32.1971 27.1129 30.3936C27.0832 30.2006 26.9199 30.0596 26.7195 30.0596H24.9457C24.723 30.0596 24.5523 30.2377 24.5523 30.4529C24.5523 32.7611 25.8066 35.5146 31.8109 35.5146C36.1453 35.5072 38.6391 33.7928 38.6391 30.8092Z" fill="white"/>
</svg>
