<svg width="56" height="56" viewBox="0 0 56 56" fill="none" xmlns="http://www.w3.org/2000/svg">
<rect x="0.25" y="0.25" width="55.5" height="55.5" rx="11.75" fill="#2C2C2C" stroke="#444444" stroke-width="0.5"/>
<path d="M20 28C20 16.9543 23.5817 8 28 8C32.4184 8 36 16.9543 36 28C36 39.0456 32.4184 48 28 48C23.5817 48 20 39.0456 20 28Z" stroke="#A291FD" stroke-width="2"/>
<path d="M23.9506 21.2384C33.6346 15.7156 43.298 14.3403 45.5346 18.1666C47.771 21.993 41.7334 29.572 32.0494 35.0948C22.3654 40.6176 12.7019 41.993 10.4655 38.1666C8.22907 34.3402 14.2665 26.7612 23.9506 21.2384Z" stroke="#A291FD" stroke-width="2"/>
<path d="M32.0494 21.2384C41.7334 26.7612 47.771 34.3402 45.5346 38.1666C43.298 41.993 33.6346 40.6176 23.9506 35.0948C14.2665 29.572 8.22907 21.993 10.4655 18.1666C12.7019 14.3403 22.3654 15.7156 32.0494 21.2384Z" stroke="#A291FD" stroke-width="2"/>
<path d="M31 28C31 29.6568 29.6568 31 28 31C26.3432 31 25 29.6568 25 28C25 26.3432 26.3432 25 28 25C29.6568 25 31 26.3432 31 28Z" stroke="#A291FD" stroke-width="2"/>
</svg>
