<svg width="56" height="56" viewBox="0 0 56 56" fill="none" xmlns="http://www.w3.org/2000/svg">
<rect x="0.25" y="0.25" width="55.5" height="55.5" rx="11.75" fill="#2C2C2C" stroke="#444444" stroke-width="0.5"/>
<path d="M35.3367 35.5199C36.7142 35.3946 37.7798 34.1174 37.7117 32.5914C37.6373 31.0654 36.4514 29.8399 35.0058 29.8399H34.9092C34.1919 29.8669 33.514 30.1932 33.0247 30.747C32.5354 31.3009 32.2747 32.0369 32.2999 32.7934C32.3474 33.5931 32.6578 34.2443 33.0821 34.7185C31.4228 38.1211 28.9322 40.6221 25.1576 42.7242C22.6196 44.1233 19.9391 44.6509 17.3298 44.2769C15.148 43.9513 13.4412 42.9245 12.3962 41.2733C10.8319 38.7706 10.6894 36.0708 11.9924 33.3694C12.9424 31.416 14.3658 29.9918 15.3158 29.2906C15.029 28.4521 14.8066 27.5905 14.6508 26.7144C7.62567 32.0204 8.34132 39.2731 10.4756 42.7008C12.0653 45.2018 15.3158 46.8013 18.8735 46.8013C19.8235 46.8013 20.821 46.7279 21.7915 46.4774C27.9617 45.2269 32.634 41.325 35.3146 35.5716L35.3367 35.5199ZM43.8043 29.2656C40.131 24.7109 34.7192 22.2098 28.5507 22.2098H27.7432C27.3426 21.2849 26.4179 20.7089 25.3714 20.7089H25.3001C23.8071 20.7089 22.6433 22.0612 22.6924 23.6357C22.7399 25.135 23.9496 26.3872 25.3967 26.3872H25.5139C26.0272 26.3663 26.5239 26.19 26.9448 25.8794C27.3656 25.5689 27.6928 25.1371 27.8873 24.6358H28.766C32.4219 24.6358 35.883 25.7611 39.0385 27.9616C41.4562 29.6395 43.1899 31.8401 44.1637 34.468C45.0155 36.6185 44.9696 38.7205 44.0924 40.4736C42.7387 43.2234 40.4603 44.6759 37.4489 44.6759C35.5505 44.6759 33.7012 44.0498 32.7512 43.6007C32.1812 44.0982 31.2312 44.9247 30.5441 45.4256C32.6309 46.424 34.743 47 36.7823 47C41.4087 47 44.8477 44.2502 46.1539 41.5972C47.5757 38.5953 47.4585 33.5431 43.8264 29.2155L43.8043 29.2656ZM19.2756 36.4181C19.3231 37.9191 20.5312 39.1696 21.9799 39.1696H22.0749C22.4315 39.1611 22.7828 39.0775 23.1082 38.9236C23.4336 38.7697 23.7265 38.5488 23.9697 38.2737C24.2128 37.9986 24.4013 37.675 24.524 37.3219C24.6467 36.9688 24.7012 36.5934 24.6842 36.2178C24.6842 34.7151 23.4508 33.4679 22.0037 33.4679H21.9087C21.8137 33.4679 21.6712 33.4679 21.5509 33.5163C19.5828 30.0135 18.7516 26.2586 19.0619 22.2098C19.2519 19.1578 20.2019 16.5048 21.9071 14.3043C23.3321 12.4277 26.0126 11.4994 27.8398 11.4526C32.9633 11.3508 35.0992 18.0826 35.2639 20.759L37.6357 21.5103C37.0894 13.3025 32.2524 9 27.626 9C23.2814 9 19.2756 12.3275 17.6607 17.2061C15.4551 23.7091 16.9023 29.9651 19.6081 34.9689C19.3706 35.2945 19.2281 35.8688 19.2756 36.4181Z" fill="#A291FD"/>
</svg>
