<svg width="56" height="56" viewBox="0 0 56 56" fill="none" xmlns="http://www.w3.org/2000/svg">
<rect x="0.25" y="0.25" width="55.5" height="55.5" rx="11.75" fill="#2C2C2C" stroke="#444444" strokeWidth="0.5"/>
<path d="M44.1805 27.6584L27.6584 44.1805C27.014 44.8249 27.014 45.8715 27.6584 46.5175C28.3028 47.1619 29.3494 47.1619 29.9954 46.5175L46.5175 29.9954C47.1619 29.3494 47.1619 28.3028 46.5175 27.6584C45.8715 27.014 44.8249 27.014 44.1805 27.6584ZM40.8761 9.48331L9.48331 40.8761C8.8389 41.5205 8.8389 42.5671 9.48331 43.2131C10.1293 43.8575 11.1759 43.8575 11.8203 43.2131L43.2131 11.8203C43.8575 11.1759 43.8575 10.1293 43.2131 9.48331C42.5671 8.8389 41.5205 8.8389 40.8761 9.48331Z" fill="#A291FD"/>
</svg>
