<svg width="56" height="56" viewBox="0 0 56 56" fill="none" xmlns="http://www.w3.org/2000/svg">
<rect x="0.25" y="0.25" width="55.5" height="55.5" rx="11.75" fill="#2C2C2C" stroke="#444444" strokeWidth="0.5"/>
<path d="M40.35 22.7369C38.9251 22.2428 37.6674 21.3544 36.721 20.1736C35.678 18.8579 34.3499 17.7999 32.8384 17.0805C31.3268 16.361 29.6718 15.9991 28 16.0226C25.7511 15.8622 23.5247 16.5606 21.7642 17.9785C20.0037 19.3965 18.8383 21.43 18.5 23.6742C19.1663 22.5518 20.1691 21.6711 21.364 21.1589C22.559 20.6468 23.8846 20.5295 25.15 20.824C26.5725 21.3324 27.8282 22.226 28.779 23.4064C29.8277 24.7115 31.1583 25.7586 32.6696 26.468C34.1808 27.1773 35.8329 27.5303 37.5 27.5C39.7489 27.6603 41.9753 26.962 43.7358 25.544C45.4963 24.1261 46.6617 22.0925 47 19.8484C46.3458 20.9842 45.3462 21.8782 44.1488 22.3983C42.9514 22.9184 41.6196 23.0371 40.35 22.7369ZM15.65 32.2631C17.0749 32.7572 18.3326 33.6456 19.279 34.8264C20.322 36.1421 21.6501 37.2001 23.1616 37.9195C24.6732 38.639 26.3282 39.0009 28 38.9774C30.2489 39.1378 32.4753 38.4394 34.2358 37.0215C35.9963 35.6035 37.1617 33.57 37.5 31.3258C36.8337 32.4482 35.8309 33.3289 34.636 33.8411C33.441 34.3532 32.1154 34.4705 30.85 34.176C29.4275 33.6676 28.1718 32.774 27.221 31.5936C26.1695 30.2917 24.8383 29.2469 23.3277 28.5379C21.8171 27.8288 20.1665 27.4739 18.5 27.5C16.2511 27.3397 14.0247 28.038 12.2642 29.456C10.5037 30.8739 9.33828 32.9075 9 35.1516C9.65418 34.0158 10.6538 33.1218 11.8512 32.6017C13.0486 32.0816 14.3804 31.9629 15.65 32.2631Z" fill="#A291FD"/>
</svg>
