<svg width="56" height="56" viewBox="0 0 56 56" fill="none" xmlns="http://www.w3.org/2000/svg">
<rect x="0.25" y="0.25" width="55.5" height="55.5" rx="11.75" fill="#2C2C2C" stroke="#444444" stroke-width="0.5"/>
<path d="M26.4752 15.7674C26.6159 15.5333 26.8149 15.3396 27.0526 15.2051C27.2904 15.0707 27.5589 15 27.8321 15C28.1052 15 28.3738 15.0707 28.6115 15.2051C28.8493 15.3396 29.0482 15.5333 29.189 15.7674L43.439 39.5174C43.5829 39.7576 43.6606 40.0317 43.664 40.3117C43.6675 40.5916 43.5967 40.8675 43.4587 41.1112C43.3208 41.3549 43.1207 41.5576 42.8789 41.6988C42.637 41.8399 42.3621 41.9144 42.0821 41.9146H13.5821C13.3021 41.9144 13.0271 41.8399 12.7853 41.6988C12.5435 41.5576 12.3434 41.3549 12.2054 41.1112C12.0675 40.8675 11.9967 40.5916 12.0001 40.3117C12.0036 40.0317 12.0812 39.7576 12.2252 39.5174L26.4752 15.7674Z" fill="white"/>
</svg>
