<svg width="56" height="56" viewBox="0 0 56 56" fill="none" xmlns="http://www.w3.org/2000/svg">
<rect x="0.25" y="0.25" width="55.5" height="55.5" rx="11.75" fill="#2C2C2C" stroke="#444444" stroke-width="0.5"/>
<path d="M35.9881 43.2463C35.4974 43.4838 34.9428 43.4959 34.4564 43.3054C34.2135 43.2104 33.9874 43.0646 33.7949 42.8708L21.6259 31.7114L16.3253 35.7558C15.8319 36.1322 15.1417 36.1014 14.6834 35.6824L12.9833 34.128C12.4228 33.6154 12.4221 32.7289 12.9819 32.2155L17.5788 28L12.9819 23.7845C12.4221 23.2711 12.4228 22.3846 12.9833 21.8721L14.6834 20.3176C15.1417 19.8986 15.8319 19.8677 16.3253 20.2442L21.6259 24.2886L33.7949 13.1291C33.8671 13.0564 33.9442 12.9905 34.0249 12.9315C34.5902 12.5184 35.344 12.4421 35.9881 12.7536L42.3448 15.8283C43.0128 16.1514 43.4375 16.8309 43.4375 17.5763V29.1875H35.7235V20.9547L26.49 28L35.7235 35.0452V29.1875H43.4375V38.4236C43.4375 39.1691 43.0126 39.8486 42.3448 40.1719L35.9881 43.2463Z" fill="#A291FD"/>
</svg>
